<?xml version="1.0" encoding="utf-8"?>
<svg xmlns="http://www.w3.org/2000/svg"
	xmlns:xlink="http://www.w3.org/1999/xlink"
	width="22px" height="23px" viewBox="0 0 22 23">
<path fillRule="evenodd" d="M 13.02 18.97C 11.24 18.97 9.59 18.44 8.19 17.55 8.19 17.55 3.31 22.43 3.31 22.43 3.31 22.43 0.93 20.04 0.93 20.04 0.93 20.04 5.73 15.23 5.73 15.23 4.66 13.75 4.02 11.93 4.02 9.96 4.02 4.99 8.05 0.96 13.02 0.96 18 0.96 22.03 4.99 22.03 9.96 22.03 14.94 18 18.97 13.02 18.97ZM 12.99 4.03C 9.72 4.03 7.07 6.68 7.07 9.95 7.07 13.22 9.72 15.88 12.99 15.88 16.26 15.88 18.91 13.22 18.91 9.95 18.91 6.68 16.26 4.03 12.99 4.03Z" fill="rgb(137,133,143)"/></svg>